<svg xmlns="http://www.w3.org/2000/svg" xmlns:xlink="http://www.w3.org/1999/xlink" width="500" zoomAndPan="magnify" viewBox="0 0 375 374.999991" height="500" preserveAspectRatio="xMidYMid meet" version="1.0"><defs><g/><clipPath id="355b0fd1b1"><path d="M 155 113.101562 L 267 113.101562 L 267 243 L 155 243 Z M 155 113.101562 " clip-rule="nonzero"/></clipPath><clipPath id="1ab4000ef4"><path d="M 104 92.882812 L 202 92.882812 L 202 173.132812 L 104 173.132812 Z M 104 92.882812 " clip-rule="nonzero"/></clipPath></defs><path fill="#fbf5e7" d="M 368.554688 187.664062 C 368.554688 190.617188 368.480469 193.566406 368.335938 196.519531 C 368.191406 199.46875 367.972656 202.414062 367.683594 205.351562 C 367.394531 208.289062 367.035156 211.222656 366.601562 214.144531 C 366.167969 217.066406 365.660156 219.972656 365.085938 222.871094 C 364.507812 225.765625 363.863281 228.648438 363.144531 231.511719 C 362.425781 234.378906 361.640625 237.222656 360.78125 240.050781 C 359.925781 242.875 359 245.679688 358.003906 248.460938 C 357.007812 251.242188 355.945312 253.996094 354.816406 256.726562 C 353.683594 259.453125 352.488281 262.152344 351.226562 264.824219 C 349.960938 267.492188 348.632812 270.128906 347.242188 272.734375 C 345.851562 275.339844 344.394531 277.910156 342.875 280.441406 C 341.355469 282.976562 339.777344 285.46875 338.136719 287.925781 C 336.496094 290.382812 334.792969 292.796875 333.035156 295.167969 C 331.277344 297.539062 329.457031 299.867188 327.585938 302.152344 C 325.710938 304.433594 323.78125 306.671875 321.796875 308.859375 C 319.816406 311.046875 317.777344 313.1875 315.691406 315.273438 C 313.601562 317.363281 311.464844 319.398438 309.273438 321.382812 C 307.085938 323.367188 304.851562 325.292969 302.566406 327.167969 C 300.285156 329.042969 297.957031 330.859375 295.582031 332.617188 C 293.210938 334.375 290.796875 336.078125 288.339844 337.71875 C 285.882812 339.359375 283.390625 340.9375 280.855469 342.457031 C 278.320312 343.976562 275.753906 345.429688 273.148438 346.824219 C 270.542969 348.214844 267.90625 349.542969 265.234375 350.804688 C 262.566406 352.066406 259.863281 353.265625 257.136719 354.394531 C 254.40625 355.523438 251.652344 356.589844 248.871094 357.582031 C 246.089844 358.578125 243.285156 359.503906 240.460938 360.363281 C 237.632812 361.21875 234.785156 362.007812 231.921875 362.722656 C 229.054688 363.441406 226.175781 364.089844 223.277344 364.664062 C 220.382812 365.242188 217.472656 365.746094 214.550781 366.179688 C 211.628906 366.613281 208.695312 366.972656 205.757812 367.261719 C 202.816406 367.554688 199.875 367.769531 196.921875 367.914062 C 193.972656 368.058594 191.019531 368.132812 188.066406 368.132812 C 185.113281 368.132812 182.160156 368.058594 179.210938 367.914062 C 176.261719 367.769531 173.316406 367.554688 170.375 367.261719 C 167.4375 366.972656 164.503906 366.613281 161.582031 366.179688 C 158.664062 365.746094 155.753906 365.242188 152.855469 364.664062 C 149.957031 364.089844 147.078125 363.441406 144.210938 362.722656 C 141.347656 362.007812 138.5 361.21875 135.675781 360.363281 C 132.847656 359.503906 130.042969 358.578125 127.261719 357.582031 C 124.480469 356.589844 121.726562 355.523438 118.996094 354.394531 C 116.269531 353.265625 113.570312 352.066406 110.898438 350.804688 C 108.230469 349.542969 105.589844 348.214844 102.984375 346.824219 C 100.382812 345.429688 97.8125 343.976562 95.277344 342.457031 C 92.746094 340.9375 90.25 339.359375 87.792969 337.71875 C 85.335938 336.078125 82.921875 334.375 80.550781 332.617188 C 78.179688 330.859375 75.851562 329.042969 73.566406 327.167969 C 71.285156 325.292969 69.046875 323.367188 66.859375 321.382812 C 64.671875 319.398438 62.53125 317.363281 60.445312 315.273438 C 58.355469 313.1875 56.320312 311.046875 54.335938 308.859375 C 52.351562 306.671875 50.421875 304.433594 48.546875 302.152344 C 46.675781 299.867188 44.859375 297.539062 43.097656 295.167969 C 41.339844 292.796875 39.636719 290.382812 37.996094 287.925781 C 36.355469 285.46875 34.777344 282.976562 33.257812 280.441406 C 31.738281 277.910156 30.285156 275.339844 28.890625 272.734375 C 27.5 270.128906 26.171875 267.492188 24.910156 264.824219 C 23.644531 262.152344 22.449219 259.453125 21.320312 256.726562 C 20.1875 253.996094 19.125 251.242188 18.128906 248.460938 C 17.136719 245.679688 16.210938 242.875 15.351562 240.050781 C 14.496094 237.222656 13.707031 234.378906 12.988281 231.511719 C 12.269531 228.648438 11.625 225.765625 11.046875 222.871094 C 10.472656 219.972656 9.96875 217.066406 9.535156 214.144531 C 9.101562 211.222656 8.738281 208.289062 8.449219 205.351562 C 8.160156 202.414062 7.941406 199.46875 7.796875 196.519531 C 7.652344 193.566406 7.578125 190.617188 7.578125 187.664062 C 7.578125 184.707031 7.652344 181.757812 7.796875 178.808594 C 7.941406 175.855469 8.160156 172.914062 8.449219 169.972656 C 8.738281 167.035156 9.101562 164.105469 9.535156 161.183594 C 9.96875 158.261719 10.472656 155.351562 11.046875 152.453125 C 11.625 149.558594 12.269531 146.675781 12.988281 143.8125 C 13.707031 140.945312 14.496094 138.101562 15.351562 135.273438 C 16.210938 132.449219 17.136719 129.644531 18.128906 126.863281 C 19.125 124.082031 20.1875 121.328125 21.320312 118.597656 C 22.449219 115.871094 23.644531 113.171875 24.910156 110.5 C 26.171875 107.832031 27.5 105.195312 28.890625 102.589844 C 30.285156 99.984375 31.738281 97.414062 33.257812 94.882812 C 34.777344 92.347656 36.355469 89.855469 37.996094 87.398438 C 39.636719 84.941406 41.339844 82.527344 43.097656 80.15625 C 44.859375 77.785156 46.675781 75.457031 48.546875 73.171875 C 50.421875 70.890625 52.351562 68.65625 54.335938 66.464844 C 56.320312 64.277344 58.355469 62.140625 60.445312 60.050781 C 62.53125 57.960938 64.671875 55.925781 66.859375 53.941406 C 69.046875 51.960938 71.285156 50.03125 73.566406 48.15625 C 75.851562 46.285156 78.179688 44.46875 80.550781 42.707031 C 82.921875 40.949219 85.335938 39.246094 87.792969 37.605469 C 90.25 35.964844 92.746094 34.386719 95.277344 32.867188 C 97.8125 31.351562 100.382812 29.894531 102.984375 28.503906 C 105.589844 27.109375 108.230469 25.78125 110.898438 24.519531 C 113.570312 23.257812 116.269531 22.058594 118.996094 20.929688 C 121.726562 19.800781 124.480469 18.738281 127.261719 17.742188 C 130.042969 16.746094 132.847656 15.820312 135.675781 14.964844 C 138.5 14.105469 141.347656 13.320312 144.210938 12.601562 C 147.078125 11.882812 149.957031 11.238281 152.855469 10.660156 C 155.753906 10.082031 158.664062 9.578125 161.582031 9.144531 C 164.503906 8.710938 167.4375 8.351562 170.375 8.0625 C 173.316406 7.773438 176.261719 7.554688 179.210938 7.410156 C 182.160156 7.265625 185.113281 7.191406 188.066406 7.191406 C 191.019531 7.191406 193.972656 7.265625 196.921875 7.410156 C 199.875 7.554688 202.816406 7.773438 205.757812 8.0625 C 208.695312 8.351562 211.628906 8.710938 214.550781 9.144531 C 217.472656 9.578125 220.382812 10.082031 223.277344 10.660156 C 226.175781 11.238281 229.054688 11.882812 231.921875 12.601562 C 234.785156 13.320312 237.632812 14.105469 240.460938 14.964844 C 243.285156 15.820312 246.089844 16.746094 248.871094 17.742188 C 251.652344 18.738281 254.40625 19.800781 257.136719 20.929688 C 259.863281 22.058594 262.566406 23.257812 265.234375 24.519531 C 267.90625 25.78125 270.542969 27.109375 273.148438 28.503906 C 275.753906 29.894531 278.320312 31.351562 280.855469 32.867188 C 283.390625 34.386719 285.882812 35.964844 288.339844 37.605469 C 290.796875 39.246094 293.210938 40.949219 295.582031 42.707031 C 297.957031 44.46875 300.285156 46.285156 302.566406 48.15625 C 304.851562 50.03125 307.085938 51.960938 309.273438 53.941406 C 311.464844 55.925781 313.601562 57.960938 315.691406 60.050781 C 317.777344 62.140625 319.816406 64.277344 321.796875 66.464844 C 323.78125 68.65625 325.710938 70.890625 327.585938 73.171875 C 329.457031 75.457031 331.277344 77.785156 333.035156 80.15625 C 334.792969 82.527344 336.496094 84.941406 338.136719 87.398438 C 339.777344 89.855469 341.355469 92.347656 342.875 94.882812 C 344.394531 97.414062 345.851562 99.984375 347.242188 102.589844 C 348.632812 105.195312 349.960938 107.832031 351.226562 110.5 C 352.488281 113.171875 353.683594 115.871094 354.816406 118.597656 C 355.945312 121.328125 357.007812 124.082031 358.003906 126.863281 C 359 129.644531 359.925781 132.449219 360.78125 135.273438 C 361.640625 138.101562 362.425781 140.945312 363.144531 143.8125 C 363.863281 146.675781 364.507812 149.558594 365.085938 152.453125 C 365.660156 155.351562 366.167969 158.261719 366.601562 161.183594 C 367.035156 164.105469 367.394531 167.035156 367.683594 169.972656 C 367.972656 172.914062 368.191406 175.855469 368.335938 178.808594 C 368.480469 181.757812 368.554688 184.707031 368.554688 187.664062 Z M 368.554688 187.664062 " fill-opacity="1" fill-rule="nonzero"/><path fill="#1a154e" d="M 188.066406 371.480469 C 86.699219 371.480469 4.230469 289.023438 4.230469 187.664062 C 4.230469 86.300781 86.699219 3.839844 188.066406 3.839844 C 289.4375 3.839844 371.902344 86.304688 371.902344 187.664062 C 371.902344 289.019531 289.4375 371.480469 188.066406 371.480469 Z M 188.066406 10.542969 C 90.394531 10.542969 10.933594 89.996094 10.933594 187.664062 C 10.933594 285.328125 90.394531 364.78125 188.066406 364.78125 C 285.738281 364.78125 365.203125 285.328125 365.203125 187.664062 C 365.203125 89.996094 285.738281 10.542969 188.066406 10.542969 Z M 188.066406 10.542969 " fill-opacity="1" fill-rule="nonzero"/><path fill="#1a154e" d="M 311.953125 188.265625 C 311.953125 190.285156 311.90625 192.304688 311.804688 194.320312 C 311.707031 196.339844 311.558594 198.355469 311.359375 200.363281 C 311.160156 202.375 310.914062 204.378906 310.617188 206.378906 C 310.320312 208.375 309.972656 210.367188 309.578125 212.347656 C 309.183594 214.328125 308.738281 216.300781 308.25 218.257812 C 307.757812 220.21875 307.214844 222.164062 306.628906 224.097656 C 306.042969 226.03125 305.40625 227.949219 304.726562 229.851562 C 304.042969 231.753906 303.316406 233.636719 302.539062 235.503906 C 301.765625 237.371094 300.945312 239.21875 300.082031 241.042969 C 299.214844 242.871094 298.304688 244.675781 297.351562 246.457031 C 296.398438 248.238281 295.398438 249.996094 294.359375 251.726562 C 293.316406 253.460938 292.234375 255.167969 291.109375 256.847656 C 289.988281 258.527344 288.820312 260.175781 287.617188 261.800781 C 286.410156 263.421875 285.164062 265.015625 283.878906 266.578125 C 282.597656 268.136719 281.273438 269.667969 279.914062 271.164062 C 278.554688 272.660156 277.160156 274.125 275.730469 275.550781 C 274.296875 276.980469 272.832031 278.375 271.332031 279.730469 C 269.832031 281.085938 268.300781 282.40625 266.738281 283.6875 C 265.171875 284.96875 263.578125 286.210938 261.949219 287.414062 C 260.324219 288.617188 258.671875 289.78125 256.988281 290.90625 C 255.304688 292.027344 253.59375 293.105469 251.859375 294.144531 C 250.121094 295.183594 248.363281 296.179688 246.578125 297.132812 C 244.792969 298.085938 242.984375 298.992188 241.15625 299.855469 C 239.324219 300.71875 237.476562 301.539062 235.605469 302.3125 C 233.734375 303.085938 231.847656 303.8125 229.941406 304.492188 C 228.035156 305.171875 226.113281 305.804688 224.175781 306.394531 C 222.242188 306.980469 220.289062 307.519531 218.328125 308.007812 C 216.363281 308.5 214.390625 308.941406 212.402344 309.335938 C 210.417969 309.730469 208.425781 310.074219 206.421875 310.371094 C 204.421875 310.667969 202.414062 310.914062 200.398438 311.113281 C 198.382812 311.3125 196.367188 311.460938 194.34375 311.558594 C 192.320312 311.660156 190.300781 311.707031 188.273438 311.707031 C 186.25 311.707031 184.226562 311.660156 182.207031 311.558594 C 180.183594 311.460938 178.167969 311.3125 176.152344 311.113281 C 174.136719 310.914062 172.128906 310.667969 170.128906 310.371094 C 168.125 310.074219 166.132812 309.730469 164.144531 309.335938 C 162.160156 308.941406 160.1875 308.5 158.222656 308.007812 C 156.261719 307.519531 154.308594 306.980469 152.371094 306.394531 C 150.4375 305.804688 148.515625 305.171875 146.609375 304.492188 C 144.703125 303.8125 142.816406 303.085938 140.945312 302.3125 C 139.074219 301.539062 137.226562 300.71875 135.394531 299.855469 C 133.566406 298.992188 131.757812 298.085938 129.972656 297.132812 C 128.1875 296.179688 126.425781 295.183594 124.691406 294.144531 C 122.953125 293.105469 121.246094 292.027344 119.5625 290.90625 C 117.878906 289.78125 116.226562 288.617188 114.597656 287.414062 C 112.972656 286.210938 111.378906 284.96875 109.8125 283.6875 C 108.25 282.40625 106.714844 281.085938 105.21875 279.730469 C 103.71875 278.375 102.25 276.980469 100.820312 275.550781 C 99.390625 274.125 97.992188 272.660156 96.632812 271.164062 C 95.273438 269.667969 93.953125 268.136719 92.667969 266.578125 C 91.386719 265.015625 90.140625 263.421875 88.933594 261.800781 C 87.730469 260.175781 86.5625 258.527344 85.4375 256.847656 C 84.316406 255.167969 83.230469 253.460938 82.191406 251.726562 C 81.152344 249.996094 80.152344 248.238281 79.199219 246.457031 C 78.246094 244.675781 77.335938 242.871094 76.46875 241.042969 C 75.605469 239.21875 74.785156 237.371094 74.011719 235.503906 C 73.234375 233.636719 72.507812 231.753906 71.824219 229.851562 C 71.144531 227.949219 70.507812 226.03125 69.921875 224.097656 C 69.332031 222.164062 68.792969 220.21875 68.300781 218.257812 C 67.808594 216.300781 67.367188 214.328125 66.972656 212.347656 C 66.578125 210.367188 66.230469 208.375 65.933594 206.378906 C 65.636719 204.378906 65.390625 202.375 65.191406 200.363281 C 64.992188 198.355469 64.84375 196.339844 64.746094 194.320312 C 64.644531 192.304688 64.59375 190.285156 64.59375 188.265625 C 64.59375 186.246094 64.644531 184.226562 64.746094 182.207031 C 64.84375 180.191406 64.992188 178.175781 65.191406 176.164062 C 65.390625 174.15625 65.636719 172.152344 65.933594 170.152344 C 66.230469 168.152344 66.578125 166.164062 66.972656 164.183594 C 67.367188 162.199219 67.808594 160.230469 68.300781 158.269531 C 68.792969 156.3125 69.332031 154.363281 69.921875 152.429688 C 70.507812 150.496094 71.144531 148.582031 71.824219 146.679688 C 72.507812 144.777344 73.234375 142.890625 74.011719 141.023438 C 74.785156 139.160156 75.605469 137.3125 76.46875 135.484375 C 77.335938 133.660156 78.246094 131.855469 79.199219 130.074219 C 80.152344 128.292969 81.152344 126.535156 82.191406 124.800781 C 83.230469 123.070312 84.316406 121.363281 85.4375 119.683594 C 86.5625 118.003906 87.730469 116.351562 88.933594 114.730469 C 90.140625 113.105469 91.386719 111.515625 92.667969 109.953125 C 93.953125 108.390625 95.273438 106.863281 96.632812 105.367188 C 97.992188 103.867188 99.390625 102.40625 100.820312 100.976562 C 102.25 99.546875 103.71875 98.15625 105.21875 96.800781 C 106.714844 95.441406 108.25 94.125 109.8125 92.84375 C 111.378906 91.558594 112.972656 90.316406 114.597656 89.113281 C 116.226562 87.910156 117.878906 86.746094 119.5625 85.625 C 121.246094 84.503906 122.953125 83.421875 124.691406 82.382812 C 126.425781 81.34375 128.1875 80.351562 129.972656 79.398438 C 131.757812 78.445312 133.566406 77.539062 135.394531 76.671875 C 137.226562 75.808594 139.074219 74.992188 140.945312 74.21875 C 142.816406 73.445312 144.703125 72.71875 146.609375 72.039062 C 148.515625 71.355469 150.4375 70.722656 152.371094 70.136719 C 154.308594 69.550781 156.261719 69.011719 158.222656 68.519531 C 160.1875 68.03125 162.160156 67.585938 164.144531 67.195312 C 166.132812 66.800781 168.125 66.453125 170.128906 66.15625 C 172.128906 65.859375 174.136719 65.613281 176.152344 65.417969 C 178.167969 65.21875 180.183594 65.070312 182.207031 64.96875 C 184.226562 64.871094 186.25 64.820312 188.273438 64.820312 C 190.300781 64.820312 192.320312 64.871094 194.34375 64.96875 C 196.367188 65.070312 198.382812 65.21875 200.398438 65.417969 C 202.414062 65.613281 204.421875 65.859375 206.421875 66.15625 C 208.425781 66.453125 210.417969 66.800781 212.402344 67.195312 C 214.390625 67.585938 216.363281 68.03125 218.328125 68.519531 C 220.289062 69.011719 222.242188 69.550781 224.175781 70.136719 C 226.113281 70.722656 228.035156 71.355469 229.941406 72.039062 C 231.847656 72.71875 233.734375 73.445312 235.605469 74.21875 C 237.476562 74.992188 239.324219 75.808594 241.15625 76.671875 C 242.984375 77.539062 244.792969 78.445312 246.578125 79.398438 C 248.363281 80.351562 250.121094 81.34375 251.859375 82.382812 C 253.59375 83.421875 255.304688 84.503906 256.988281 85.625 C 258.671875 86.746094 260.324219 87.910156 261.949219 89.113281 C 263.578125 90.316406 265.171875 91.558594 266.738281 92.84375 C 268.300781 94.125 269.832031 95.441406 271.332031 96.800781 C 272.832031 98.15625 274.296875 99.546875 275.730469 100.976562 C 277.160156 102.40625 278.554688 103.867188 279.914062 105.367188 C 281.273438 106.863281 282.597656 108.390625 283.878906 109.953125 C 285.164062 111.515625 286.410156 113.105469 287.617188 114.730469 C 288.820312 116.351562 289.988281 118.003906 291.109375 119.683594 C 292.234375 121.363281 293.316406 123.070312 294.359375 124.800781 C 295.398438 126.535156 296.398438 128.292969 297.351562 130.074219 C 298.304688 131.855469 299.214844 133.660156 300.082031 135.484375 C 300.945312 137.3125 301.765625 139.160156 302.539062 141.023438 C 303.316406 142.890625 304.042969 144.777344 304.726562 146.679688 C 305.40625 148.582031 306.042969 150.496094 306.628906 152.429688 C 307.214844 154.363281 307.757812 156.3125 308.25 158.269531 C 308.738281 160.230469 309.183594 162.199219 309.578125 164.183594 C 309.972656 166.164062 310.320312 168.152344 310.617188 170.152344 C 310.914062 172.152344 311.160156 174.15625 311.359375 176.164062 C 311.558594 178.175781 311.707031 180.191406 311.804688 182.207031 C 311.90625 184.226562 311.953125 186.246094 311.953125 188.265625 Z M 311.953125 188.265625 " fill-opacity="1" fill-rule="nonzero"/><path fill="#1a154e" d="M 188.273438 314 C 118.8125 314 62.300781 257.597656 62.300781 188.265625 C 62.300781 118.933594 118.8125 62.527344 188.273438 62.527344 C 257.738281 62.527344 314.25 118.933594 314.25 188.265625 C 314.25 257.59375 257.738281 314 188.273438 314 Z M 188.273438 67.113281 C 121.34375 67.113281 66.890625 121.460938 66.890625 188.265625 C 66.890625 255.070312 121.34375 309.414062 188.273438 309.414062 C 255.207031 309.414062 309.660156 255.070312 309.660156 188.265625 C 309.660156 121.460938 255.207031 67.113281 188.273438 67.113281 Z M 188.273438 67.113281 " fill-opacity="1" fill-rule="nonzero"/><g clip-path="url(#355b0fd1b1)"><path fill="#fbf5e7" d="M 246.304688 139.246094 C 239.101562 137.234375 234.871094 129.714844 236.878906 122.488281 C 237.882812 118.867188 235.773438 115.117188 232.164062 114.109375 C 228.554688 113.101562 224.816406 115.21875 223.808594 118.839844 L 202.226562 196.601562 C 198.984375 193.257812 194.851562 190.699219 190.058594 189.363281 C 175.597656 185.320312 160.554688 193.835938 156.53125 208.34375 C 152.503906 222.847656 160.992188 237.933594 175.453125 241.972656 C 189.914062 246.015625 204.949219 237.5 208.976562 222.992188 L 230.574219 145.179688 C 233.800781 148.492188 237.90625 151.027344 242.664062 152.355469 C 249.871094 154.367188 254.101562 161.886719 252.09375 169.113281 C 251.089844 172.734375 253.199219 176.484375 256.808594 177.496094 C 260.417969 178.503906 264.15625 176.386719 265.160156 172.765625 C 269.179688 158.308594 260.71875 143.273438 246.304688 139.246094 Z M 246.304688 139.246094 " fill-opacity="1" fill-rule="nonzero"/></g><path fill="#fbf5e7" d="M 248.425781 202.382812 C 243.929688 203.527344 239.34375 200.789062 238.203125 196.277344 C 237.632812 194.019531 235.34375 192.652344 233.09375 193.226562 C 230.84375 193.800781 229.480469 196.09375 230.050781 198.351562 L 242.316406 246.871094 C 239.546875 246.074219 236.539062 245.976562 233.546875 246.734375 C 224.523438 249.03125 219.042969 258.261719 221.332031 267.3125 C 223.621094 276.363281 232.824219 281.855469 241.84375 279.5625 C 250.867188 277.265625 256.347656 268.035156 254.058594 258.984375 L 241.785156 210.433594 C 244.539062 211.21875 247.523438 211.316406 250.492188 210.558594 C 254.988281 209.417969 259.574219 212.15625 260.714844 216.664062 C 261.285156 218.921875 263.574219 220.292969 265.824219 219.71875 C 268.074219 219.144531 269.4375 216.847656 268.867188 214.59375 C 266.585938 205.570312 257.417969 200.097656 248.425781 202.382812 Z M 248.425781 202.382812 " fill-opacity="1" fill-rule="nonzero"/><g clip-path="url(#1ab4000ef4)"><path fill="#fbf5e7" d="M 152.964844 92.882812 C 179.992188 92.882812 201.230469 109.707031 201.230469 130.417969 C 201.230469 140.773438 193.507812 151.128906 185.140625 158.246094 C 185.785156 165.363281 196.726562 168.601562 201.230469 173.132812 C 191.578125 173.132812 179.992188 169.894531 173.558594 164.71875 C 168.410156 166.011719 158.113281 167.953125 152.320312 167.953125 C 125.289062 167.953125 104.050781 151.128906 104.050781 130.417969 C 104.050781 109.707031 125.933594 92.882812 152.964844 92.882812 Z M 152.964844 92.882812 " fill-opacity="1" fill-rule="nonzero"/></g><g fill="#1a154e" fill-opacity="1"><g transform="translate(104.490573, 73.290626)"><g><path d="M 3.878906 -2.4375 C 4.421875 -2.777344 4.589844 -3.507812 4.246094 -4.054688 L -3.585938 -16.519531 L 1.003906 -12.699219 C 1.539062 -12.277344 2.175781 -12.046875 2.785156 -12.429688 L 3.585938 -12.933594 C 4.160156 -13.296875 4.199219 -13.945312 4.082031 -14.632812 L 2.863281 -21.910156 L 11.296875 -8.484375 C 11.640625 -7.9375 12.371094 -7.773438 12.914062 -8.113281 L 14.484375 -9.101562 C 15.03125 -9.441406 15.195312 -10.171875 14.855469 -10.71875 L 2.613281 -30.203125 C 2.269531 -30.746094 1.539062 -30.914062 0.996094 -30.574219 L -0.574219 -29.585938 C -1.503906 -29 -1.441406 -28.191406 -1.339844 -27.316406 L -0.0742188 -17.832031 L -7.300781 -23.574219 C -8 -24.117188 -8.683594 -24.492188 -9.613281 -23.90625 L -11.183594 -22.921875 C -11.726562 -22.578125 -11.894531 -21.847656 -11.550781 -21.304688 L 0.691406 -1.820312 C 1.03125 -1.273438 1.761719 -1.105469 2.308594 -1.449219 Z M 3.878906 -2.4375 "/></g></g></g><g fill="#1a154e" fill-opacity="1"><g transform="translate(123.741136, 61.456587)"><g><path d="M 9.277344 -3.519531 C 14.121094 -5.570312 15.199219 -9.726562 13.207031 -14.429688 L 6.945312 -29.207031 C 6.695312 -29.800781 6 -30.082031 5.410156 -29.828125 L 3.699219 -29.105469 C 3.109375 -28.855469 2.828125 -28.160156 3.078125 -27.570312 L 9.335938 -12.792969 C 10.488281 -10.074219 9.851562 -8.28125 7.65625 -7.351562 C 5.457031 -6.421875 3.761719 -7.226562 2.609375 -9.941406 L -3.648438 -24.71875 C -3.898438 -25.3125 -4.59375 -25.59375 -5.1875 -25.34375 L -6.894531 -24.617188 C -7.519531 -24.351562 -7.800781 -23.660156 -7.550781 -23.066406 L -1.292969 -8.289062 C 0.699219 -3.585938 4.433594 -1.46875 9.277344 -3.519531 Z M 9.277344 -3.519531 "/></g></g></g><g fill="#1a154e" fill-opacity="1"><g transform="translate(144.6335, 52.846241)"><g><path d="M 9.867188 -2.03125 C 14.058594 -3.054688 17.09375 -6.253906 15.949219 -10.925781 C 15.03125 -14.671875 12.855469 -16.710938 8.597656 -16.914062 L 4.925781 -17.105469 C 3.503906 -17.1875 2.210938 -17.84375 1.824219 -19.425781 C 1.335938 -21.410156 2.703125 -22.835938 4.652344 -23.3125 C 6.269531 -23.710938 7.589844 -23.566406 8.957031 -23.238281 C 9.679688 -23.144531 10.269531 -23.285156 10.554688 -24.019531 L 11.316406 -25.84375 C 11.539062 -26.367188 11.15625 -27.128906 10.609375 -27.304688 C 8.417969 -27.976562 6.34375 -28.015625 4.027344 -27.445312 C -0.238281 -26.402344 -3.5 -23.183594 -2.328125 -18.40625 C -1.527344 -15.132812 0.894531 -13.039062 4.640625 -12.867188 L 8.308594 -12.675781 C 10.089844 -12.566406 11.363281 -11.824219 11.785156 -10.097656 C 12.253906 -8.1875 11.082031 -6.613281 8.765625 -6.046875 C 7.074219 -5.632812 5.527344 -5.914062 4.144531 -6.78125 C 3.109375 -7.191406 2.722656 -7.019531 2.140625 -6.371094 L 0.976562 -5.070312 C 0.617188 -4.632812 0.707031 -3.796875 1.164062 -3.519531 C 3.265625 -1.929688 6.082031 -1.101562 9.867188 -2.03125 Z M 9.867188 -2.03125 "/></g></g></g><g fill="#1a154e" fill-opacity="1"><g transform="translate(166.632168, 47.680278)"><g><path d="M 14.035156 -22.390625 C 14.675781 -22.441406 15.164062 -23.011719 15.109375 -23.652344 L 14.964844 -25.464844 C 14.914062 -26.105469 14.34375 -26.589844 13.703125 -26.539062 L 2.042969 -25.601562 C 1.402344 -25.550781 0.917969 -24.980469 0.96875 -24.339844 L 1.113281 -22.527344 C 1.164062 -21.886719 1.738281 -21.402344 2.378906 -21.453125 L 6.113281 -21.753906 L 7.476562 -4.777344 L 3.742188 -4.476562 C 3.101562 -4.425781 2.613281 -3.855469 2.664062 -3.214844 L 2.8125 -1.402344 C 2.863281 -0.761719 3.433594 -0.277344 4.074219 -0.328125 L 15.730469 -1.261719 C 16.371094 -1.316406 16.859375 -1.886719 16.808594 -2.527344 L 16.660156 -4.335938 C 16.609375 -4.980469 16.039062 -5.464844 15.398438 -5.414062 L 11.703125 -5.117188 L 10.339844 -22.09375 Z M 14.035156 -22.390625 "/></g></g></g><g fill="#1a154e" fill-opacity="1"><g transform="translate(189.173311, 46.091098)"><g><path d="M 10.457031 1.21875 C 13.964844 1.5 16.386719 0.175781 17.945312 -1.710938 C 18.320312 -2.136719 18.203125 -3.019531 17.769531 -3.320312 L 16.199219 -4.546875 C 15.589844 -5.011719 15.085938 -4.863281 14.472656 -4.34375 C 13.398438 -3.253906 12.414062 -2.800781 10.789062 -2.929688 C 8.453125 -3.117188 7.015625 -4.636719 7.253906 -7.582031 L 7.976562 -16.597656 C 8.214844 -19.539062 9.871094 -20.8125 12.210938 -20.625 C 13.832031 -20.492188 14.734375 -19.890625 15.621094 -18.640625 C 16.140625 -18.03125 16.617188 -17.800781 17.292969 -18.164062 L 19.039062 -19.125 C 19.511719 -19.355469 19.773438 -20.207031 19.46875 -20.6875 C 18.234375 -22.796875 16.054688 -24.492188 12.542969 -24.773438 C 7.339844 -25.191406 4.160156 -22.03125 3.753906 -16.9375 L 3.027344 -7.921875 C 2.617188 -2.828125 5.25 0.800781 10.457031 1.21875 Z M 10.457031 1.21875 "/></g></g></g><g fill="#1a154e" fill-opacity="1"><g transform="translate(211.679195, 48.119436)"><g><path d="M 15.339844 -5.359375 C 16.003906 -5.195312 16.644531 -5.582031 16.804688 -6.246094 L 17.15625 -7.679688 C 17.3125 -8.304688 16.921875 -8.945312 16.261719 -9.105469 L 9.054688 -10.875 C 8.429688 -11.027344 7.789062 -10.636719 7.636719 -10.011719 L 7.285156 -8.578125 C 7.125 -7.917969 7.511719 -7.277344 8.136719 -7.125 Z M 15.339844 -5.359375 "/></g></g></g><g fill="#1a154e" fill-opacity="1"><g transform="translate(233.572971, 53.713308)"><g><path d="M 8.984375 4.214844 C 13.828125 6.269531 17.558594 4.148438 19.554688 -0.554688 L 23.082031 -8.882812 C 25.074219 -13.589844 23.996094 -17.742188 19.152344 -19.796875 C 14.308594 -21.847656 10.578125 -19.730469 8.582031 -15.023438 L 5.054688 -6.695312 C 3.0625 -1.992188 4.140625 2.164062 8.984375 4.214844 Z M 10.605469 0.382812 C 8.410156 -0.546875 7.808594 -2.324219 8.957031 -5.042969 L 12.488281 -13.371094 C 13.636719 -16.089844 15.335938 -16.890625 17.53125 -15.960938 C 19.726562 -15.03125 20.363281 -13.242188 19.210938 -10.523438 L 15.683594 -2.191406 C 14.535156 0.523438 12.800781 1.3125 10.605469 0.382812 Z M 10.605469 0.382812 "/></g></g></g><g fill="#1a154e" fill-opacity="1"><g transform="translate(254.293489, 62.729335)"><g><path d="M 3.878906 2.4375 C 4.421875 2.777344 5.152344 2.613281 5.496094 2.066406 L 13.429688 -10.558594 L 12.160156 5.898438 C 12.035156 7.023438 12.273438 7.710938 12.914062 8.113281 L 14.484375 9.101562 C 15.03125 9.441406 15.761719 9.277344 16.101562 8.730469 L 28.34375 -10.753906 C 28.6875 -11.296875 28.519531 -12.027344 27.976562 -12.371094 L 26.40625 -13.359375 C 25.859375 -13.699219 25.128906 -13.535156 24.789062 -12.988281 L 16.714844 -0.136719 L 18.183594 -16.777344 C 18.253906 -17.671875 18.394531 -18.390625 17.398438 -19.015625 L 15.796875 -20.023438 C 15.253906 -20.363281 14.523438 -20.199219 14.179688 -19.652344 L 1.9375 -0.167969 C 1.597656 0.375 1.761719 1.105469 2.308594 1.449219 Z M 3.878906 2.4375 "/></g></g></g><g fill="#1a154e" fill-opacity="1"><g transform="translate(275.736018, 302.60788)"><g><path d="M -3.878906 2.4375 C -4.421875 2.777344 -4.589844 3.507812 -4.246094 4.054688 L 3.585938 16.519531 L -1.003906 12.699219 C -1.539062 12.277344 -2.175781 12.046875 -2.785156 12.429688 L -3.585938 12.933594 C -4.160156 13.296875 -4.199219 13.945312 -4.082031 14.632812 L -2.863281 21.910156 L -11.296875 8.484375 C -11.640625 7.9375 -12.371094 7.773438 -12.914062 8.113281 L -14.484375 9.101562 C -15.03125 9.441406 -15.195312 10.171875 -14.855469 10.71875 L -2.613281 30.203125 C -2.269531 30.746094 -1.539062 30.914062 -0.996094 30.574219 L 0.574219 29.585938 C 1.503906 29 1.441406 28.191406 1.339844 27.316406 L 0.0742188 17.832031 L 7.300781 23.574219 C 8 24.117188 8.683594 24.492188 9.613281 23.90625 L 11.183594 22.921875 C 11.726562 22.578125 11.894531 21.847656 11.550781 21.304688 L -0.691406 1.820312 C -1.03125 1.273438 -1.761719 1.105469 -2.308594 1.449219 Z M -3.878906 2.4375 "/></g></g></g><g fill="#1a154e" fill-opacity="1"><g transform="translate(256.48547, 314.441914)"><g><path d="M -9.277344 3.519531 C -14.121094 5.570312 -15.199219 9.726562 -13.207031 14.429688 L -6.945312 29.207031 C -6.695312 29.800781 -6 30.082031 -5.410156 29.828125 L -3.699219 29.105469 C -3.109375 28.855469 -2.828125 28.160156 -3.078125 27.570312 L -9.335938 12.792969 C -10.488281 10.074219 -9.851562 8.28125 -7.65625 7.351562 C -5.457031 6.421875 -3.761719 7.226562 -2.609375 9.941406 L 3.648438 24.71875 C 3.898438 25.3125 4.59375 25.59375 5.1875 25.34375 L 6.894531 24.617188 C 7.519531 24.351562 7.800781 23.660156 7.550781 23.066406 L 1.292969 8.289062 C -0.699219 3.585938 -4.433594 1.46875 -9.277344 3.519531 Z M -9.277344 3.519531 "/></g></g></g><g fill="#1a154e" fill-opacity="1"><g transform="translate(235.593091, 323.052273)"><g><path d="M -9.867188 2.03125 C -14.058594 3.054688 -17.09375 6.253906 -15.949219 10.925781 C -15.03125 14.671875 -12.855469 16.710938 -8.597656 16.914062 L -4.925781 17.105469 C -3.503906 17.1875 -2.210938 17.84375 -1.824219 19.425781 C -1.335938 21.410156 -2.703125 22.835938 -4.652344 23.3125 C -6.269531 23.710938 -7.589844 23.566406 -8.957031 23.238281 C -9.679688 23.144531 -10.269531 23.285156 -10.554688 24.019531 L -11.316406 25.84375 C -11.539062 26.367188 -11.15625 27.128906 -10.609375 27.304688 C -8.417969 27.976562 -6.34375 28.015625 -4.027344 27.445312 C 0.238281 26.402344 3.5 23.183594 2.328125 18.40625 C 1.527344 15.132812 -0.894531 13.039062 -4.640625 12.867188 L -8.308594 12.675781 C -10.089844 12.566406 -11.363281 11.824219 -11.785156 10.097656 C -12.253906 8.1875 -11.082031 6.613281 -8.765625 6.046875 C -7.074219 5.632812 -5.527344 5.914062 -4.144531 6.78125 C -3.109375 7.191406 -2.722656 7.019531 -2.140625 6.371094 L -0.976562 5.070312 C -0.617188 4.632812 -0.707031 3.796875 -1.164062 3.519531 C -3.265625 1.929688 -6.082031 1.101562 -9.867188 2.03125 Z M -9.867188 2.03125 "/></g></g></g><g fill="#1a154e" fill-opacity="1"><g transform="translate(213.594423, 328.218213)"><g><path d="M -14.035156 22.390625 C -14.675781 22.441406 -15.164062 23.011719 -15.109375 23.652344 L -14.964844 25.464844 C -14.914062 26.105469 -14.34375 26.589844 -13.703125 26.539062 L -2.042969 25.601562 C -1.402344 25.550781 -0.917969 24.980469 -0.96875 24.339844 L -1.113281 22.527344 C -1.164062 21.886719 -1.738281 21.402344 -2.378906 21.453125 L -6.113281 21.753906 L -7.476562 4.777344 L -3.742188 4.476562 C -3.101562 4.425781 -2.613281 3.855469 -2.664062 3.214844 L -2.8125 1.402344 C -2.863281 0.761719 -3.433594 0.277344 -4.074219 0.328125 L -15.730469 1.261719 C -16.371094 1.316406 -16.859375 1.886719 -16.808594 2.527344 L -16.660156 4.335938 C -16.609375 4.980469 -16.039062 5.464844 -15.398438 5.414062 L -11.703125 5.117188 L -10.339844 22.09375 Z M -14.035156 22.390625 "/></g></g></g><g fill="#1a154e" fill-opacity="1"><g transform="translate(191.053278, 329.807421)"><g><path d="M -10.457031 -1.21875 C -13.964844 -1.5 -16.386719 -0.175781 -17.945312 1.710938 C -18.320312 2.136719 -18.203125 3.019531 -17.769531 3.320312 L -16.199219 4.546875 C -15.589844 5.011719 -15.085938 4.863281 -14.472656 4.34375 C -13.398438 3.253906 -12.414062 2.800781 -10.789062 2.929688 C -8.453125 3.117188 -7.015625 4.636719 -7.253906 7.582031 L -7.976562 16.597656 C -8.214844 19.539062 -9.871094 20.8125 -12.210938 20.625 C -13.832031 20.492188 -14.734375 19.890625 -15.621094 18.640625 C -16.140625 18.03125 -16.617188 17.800781 -17.292969 18.164062 L -19.039062 19.125 C -19.511719 19.355469 -19.773438 20.207031 -19.46875 20.6875 C -18.234375 22.796875 -16.054688 24.492188 -12.542969 24.773438 C -7.339844 25.191406 -4.160156 22.03125 -3.753906 16.9375 L -3.027344 7.921875 C -2.617188 2.828125 -5.25 -0.800781 -10.457031 -1.21875 Z M -10.457031 -1.21875 "/></g></g></g><g fill="#1a154e" fill-opacity="1"><g transform="translate(168.547394, 327.779061)"><g><path d="M -15.339844 5.359375 C -16.003906 5.195312 -16.644531 5.582031 -16.804688 6.246094 L -17.15625 7.679688 C -17.3125 8.304688 -16.921875 8.945312 -16.261719 9.105469 L -9.054688 10.875 C -8.429688 11.027344 -7.789062 10.636719 -7.636719 10.011719 L -7.285156 8.578125 C -7.125 7.917969 -7.511719 7.277344 -8.136719 7.125 Z M -15.339844 5.359375 "/></g></g></g><g fill="#1a154e" fill-opacity="1"><g transform="translate(146.65362, 322.185194)"><g><path d="M -8.984375 -4.214844 C -13.828125 -6.269531 -17.558594 -4.148438 -19.554688 0.554688 L -23.082031 8.882812 C -25.074219 13.589844 -23.996094 17.742188 -19.152344 19.796875 C -14.308594 21.847656 -10.578125 19.730469 -8.582031 15.023438 L -5.054688 6.695312 C -3.0625 1.992188 -4.140625 -2.164062 -8.984375 -4.214844 Z M -10.605469 -0.382812 C -8.410156 0.546875 -7.808594 2.324219 -8.957031 5.042969 L -12.488281 13.371094 C -13.636719 16.089844 -15.335938 16.890625 -17.53125 15.960938 C -19.726562 15.03125 -20.363281 13.242188 -19.210938 10.523438 L -15.683594 2.191406 C -14.535156 -0.523438 -12.800781 -1.3125 -10.605469 -0.382812 Z M -10.605469 -0.382812 "/></g></g></g><g fill="#1a154e" fill-opacity="1"><g transform="translate(125.933107, 313.169168)"><g><path d="M -3.878906 -2.4375 C -4.421875 -2.777344 -5.152344 -2.613281 -5.496094 -2.066406 L -13.429688 10.558594 L -12.160156 -5.898438 C -12.035156 -7.023438 -12.273438 -7.710938 -12.914062 -8.113281 L -14.484375 -9.101562 C -15.03125 -9.441406 -15.761719 -9.277344 -16.101562 -8.730469 L -28.34375 10.753906 C -28.6875 11.296875 -28.519531 12.027344 -27.976562 12.371094 L -26.40625 13.359375 C -25.859375 13.699219 -25.128906 13.535156 -24.789062 12.988281 L -16.714844 0.136719 L -18.183594 16.777344 C -18.253906 17.671875 -18.394531 18.390625 -17.398438 19.015625 L -15.796875 20.023438 C -15.253906 20.363281 -14.523438 20.199219 -14.179688 19.652344 L -1.9375 0.167969 C -1.597656 -0.375 -1.761719 -1.105469 -2.308594 -1.449219 Z M -3.878906 -2.4375 "/></g></g></g></svg>